REM MD5 023053055680b4daa3039194c1390f03
FILE "Duke Nukem (France).bin" BINARY
  TRACK 01 MODE2/2352
    INDEX 01 00:00:00
  TRACK 02 AUDIO
    INDEX 00 52:36:04
    INDEX 01 52:38:04
  TRACK 03 AUDIO
    INDEX 00 55:42:03
    INDEX 01 55:44:03
  TRACK 04 AUDIO
    INDEX 00 59:44:03
    INDEX 01 59:46:03
REM LEADOUT 66:08:12
